<?xml version="1.0" encoding="UTF-8"?>
<svg id="Layer_2" data-name="Layer 2" xmlns="http://www.w3.org/2000/svg" viewBox="0 0 368.13 173.21">
  <defs>
    <style>
      .cls-1 {
        fill: #fff;
      }

      .cls-2 {
        fill: #6560ab;
      }

      .cls-3 {
        fill: #8f4a9c;
      }

      .cls-4 {
        fill: #5f5eaa;
      }
    </style>
  </defs>
  <g id="Layer_1-2" data-name="Layer 1">
    <g>
      <path class="cls-1" d="m191.33,99.15c-.65,0-1.28-.12-1.88-.37-1.9-.71-3.18-2.66-3.08-4.77,0-1.5.19-2.99.59-4.44l.04-.15c.21-.65.1-1.36-.31-1.91l-.09-.12-.08-.13c-4.92-8.22-9.02-16.97-12.18-26.01-1.37-3.8-3.15-7.51-5.27-10.98-2.01-3.3-4.56-6.19-7.59-8.58-.4-.31-.89-.62-1.4-.95l-.64-.41-1.36-.89v-10.13l4.38,2.28c1.48.77,2.94,1.64,4.32,2.58l.14.1c5.39,4.16,9.73,9.63,12.55,15.83,1.81,3.82,3.39,7.81,4.92,11.67l.33.84c2.11,5.55,4.63,10.94,7.5,16.11.11-.06.23-.12.36-.18h0c.07-.2.17-.58.23-.85l.1-.4c1.58-6.36,3.8-12.58,6.61-18.49.93-1.92,1.84-3.82,2.75-5.71,2.12-4.41,4.3-8.97,6.57-13.44l.06-.11c1.06-1.89,2.23-3.75,3.48-5.52.87-1.6,2.5-2.64,4.33-2.74l3.16-.17v8.37l-.59.79c-.41.56-.8,1.15-1.15,1.75-4.81,8.89-9.19,18.24-12.99,27.69-.9,2.36-1.66,4.96-2.39,7.47-.38,1.29-.75,2.58-1.15,3.85-.1.34-.55,1.88-.67,2.27.16,1.12.09,2.26-.21,3.35.44.76.84,1.58,1.17,2.41,1.29,3.38-.39,7.14-3.73,8.42-.74.28-1.53.43-2.32.43-.37,0-.75-.03-1.11-.1-.91.86-2.12,1.34-3.39,1.34Z"/>
      <path class="cls-1" d="m341.7,172.58c-1.43,0-2.81-.52-3.88-1.47-.72-.63-1.27-1.43-1.6-2.33-2.9-5.51-6.47-10.66-10.61-15.32l-.1-.12c-5.53-6.94-11.63-13.53-18.12-19.56-4.67-4.18-9.54-8.41-14.25-12.5l-2.78-2.42c-2.52-2.37-5.65-3.98-9.04-4.66-.88-.17-1.45-.67-1.71-.91l-7.07-5.31h18.83l.83.67c.84.68,1.69,1.36,2.54,2.03,1.79,1.42,3.64,2.9,5.41,4.43l2.17,1.87c4.07,3.49,8.27,7.11,12.24,10.88,8.98,8.5,17.18,17.88,24.42,27.92,1.16-1.9,2.6-3.66,4.26-5.17l.1-.08c1.41-1.17,2.93-2.21,4.55-3.07.92-.58,1.98-.88,3.06-.88,1.44,0,2.81.53,3.88,1.49,1.79,1.73,2.38,4.22,1.59,6.47-.24.98-.61,1.92-1.08,2.81l-.66,1.16c-1.54,2.72-3.14,5.52-4.92,8.18-1.1,1.59-2.39,2.98-3.86,4.16-1.1,1.12-2.61,1.75-4.18,1.75Z"/>
      <path class="cls-1" d="m229.58,138.44c-1.56,0-3.1-.26-4.57-.77-2.34-.73-4.56-1.79-6.59-3.16-5.39-3.45-10.65-7.33-15.6-11.5-.97.88-1.91,1.75-2.84,2.64-1.93,1.85-4.12,3.4-6.51,4.61-1.49.8-3.24,1.24-5,1.24-.57,0-1.15-.05-1.71-.14-3.24-.22-5.77-2.98-5.67-6.25.04-1.25.44-2.43,1.17-3.43.69-1.09,1.53-2.06,2.52-2.88,3.48-2.83,7.36-5.01,11.56-6.49.95-.36,2-.59,3.07-.67.35-.04.7-.06,1.06-.06,2.17,0,4.25.79,5.87,2.23,5.25,4.71,10.92,9.02,16.85,12.82l.13.09c1.76,1.26,3.83,2.09,5.97,2.41.19.03.39.04.59.04,1.03,0,2.02-.39,2.77-1.1,1.64-1.55,2.95-3.37,3.89-5.42l6.87-14.59h9.8l-1.67,4.12c-.08.2-.16.4-.23.6-.18.47-.38,1-.64,1.55-.73,1.54-1.49,3.1-2.24,4.66-1.12,2.31-2.24,4.64-3.35,7.02-1.25,2.74-2.91,5.29-4.92,7.55-2.61,3.08-6.49,4.88-10.6,4.88Z"/>
      <path class="cls-1" d="m358.07,83.55c-1.27,0-2.56-.06-3.83-.17-4.78-.53-9.08-.91-13.21-1.15-9.27-.52-18.43-3.26-26.48-7.92l-8.19-4.64v-10.23l4.58,2.22c.5.24,1.06.51,1.61.87,3.94,2.44,8.07,4.67,12.28,6.62,4.52,1.98,9.36,3.21,14.34,3.61,1.7.18,3.32.31,5.04.44,1.71-1.77,4.01-2.2,5.38-2.46,1.31-.22,2.58-.32,3.84-.32,3.84,0,7.66.97,11.04,2.8.63.32,1.29.77,1.89,1.3.97.8,1.59,1.92,1.74,3.18.16,1.3-.19,2.58-1,3.62-.88,1.13-2.2,1.81-3.62,1.88-1.79.22-3.6.33-5.4.33Z"/>
      <path class="cls-1" d="m130.99,92.06l.63-3.53c.46-2.56,1.03-5.05,1.58-7.47.34-1.51.69-3.01,1.01-4.54l.5-2.39h7.4l4.62,17.93h-15.73Z"/>
      <path class="cls-1" d="m271.48,114.03l-.46-2.44c-1.44-7.6-5.1-8.63-7.72-8.75-.27-.02-.46-.03-.64-.03-1.23,0-2.45.3-3.53.87l-.1.05c-1.16.55-2.1,1.49-2.67,2.64-.45,1.13-.84,2.35-1.24,3.64-.18.57-.36,1.16-.56,1.74l-.64,1.95-5.08.27h-34.96v-3c0-.26-.02-.49-.03-.71-.02-.33-.04-.65-.04-.97V38.4c-.02-1.39-.02-2.84-.02-4.22,0-1,.02-2,.04-3,.02-.97.04-1.94.04-2.91v-12.04l2.13-.64c.44-.13,1.37-.41,50.09-.41,41.96,0,43.16.25,43.61.35l2.38.51v5.23c0,12.46.04,25.11.11,37.59,0,1.14.04,2.25.08,3.36.03.68.05,1.36.07,2.04v3.76c0,.41-.02.82-.04,1.22-.02.3-.03.59-.03.9v43.76h-8.38l-13.61.14h-18.77Z"/>
      <path class="cls-3" d="m216.77,34.18c0-1.96.08-3.93.08-5.91v-9.81c1.13-.34,90.24-.42,92.21,0v2.8c0,12.53.04,25.06.11,37.6,0,1.83.11,3.64.15,5.46v3.68c0,.71-.08,1.41-.08,2.12v40.76h-5.38l-13.63.14h-16.27c-1.36-7.16-4.97-10.94-10.53-11.18-1.98-.15-3.95.27-5.71,1.19-1.8.86-3.26,2.32-4.11,4.13-.73,1.79-1.25,3.68-1.9,5.66l-2.95.15h-31.88c0-.63-.08-1.16-.08-1.69V38.4c-.02-1.41-.02-2.85-.02-4.22Zm10.97,33.09c-.03.18-.03.37,0,.56.5,3.59,2.8,6.67,6.09,8.17,3.46,1.57,7.39,1.76,10.98.54,1.85-.61,3.49-1.73,4.73-3.23,3.84-4.49,3.81-12.98-3.59-15.93-1.55-.62-3.09-1.05-4.72-1.62-1.33-.4-2.61-.92-3.85-1.55-1.74-1.02-2.33-3.25-1.32-4.99.25-.43.59-.81.99-1.1,1.73-1.5,4.35-1.31,5.85.42.02.02.04.05.06.07.56.71,1.08,1.45,1.55,2.23h6.48c-.12-2.88-1.51-5.55-3.79-7.3-4.72-3.5-11.29-3.04-15.47,1.08-5.26,5.38-3.67,13.15,3.26,15.96.94.37,1.92.68,2.88,1.01s2.06.62,3.09,1.01c.91.33,1.78.76,2.58,1.3,1.8,1.3,2.2,3.82.9,5.62-.2.28-.44.54-.71.76-2.41,1.86-5.86,1.42-7.72-.99-.16-.21-.31-.43-.44-.67-.33-1.03-1.38-1.65-2.44-1.44-1.35.09-2.69,0-4.02,0-.56,0-.96.06-1.38.11Zm29.28-25.52v34.87h6.79c.39-2.1.26-33.77-.12-34.91l-6.67.05Z"/>
      <path class="cls-1" d="m65.56,114.68V15.99h41.6l-.2,3.19c-.15,2.49.96,4.85,2.99,6.3,1.43,1.08,3.14,1.65,4.86,1.65.15,0,.31,0,.46-.01,1.5-.07,5.97-.29,7.28-8.48l.4-2.51,41.14-.34v3.02c0,.26.02.48.04.68.03.33.05.64.05.94v13.99c-.08,1.12-.09,2.29-.11,3.42,0,.32,0,.68-.02,1.04-.02.63-.03,1.22.01,1.8v.11s0,.11,0,.11c0,5.28.05,10.66.1,15.86.06,5.93.12,12.06.1,18.1,0,8.45-.13,17.02-.27,25.31-.05,3.43-.11,6.87-.15,10.3v4.2s-98.3,0-98.3,0Z"/>
      <path class="cls-2" d="m142.85,89.06h-8.28c.73-4.05,1.73-7.92,2.57-11.93h2.63c.99,3.85,2.01,7.78,3.08,11.93Z"/>
      <path class="cls-4" d="m161.07,37.82c0,1.01-.08,2.01,0,3.09,0,11.31.23,22.63.2,33.95,0,11.88-.26,23.74-.42,35.58v1.24h-92.3V18.99h35.41c-.22,3.51,1.38,6.88,4.24,8.93,2.08,1.57,4.64,2.35,7.24,2.2,5.46-.26,8.96-4.02,10.07-11l35.58-.29c0,.67.09,1.14.09,1.62v13.8c-.08,1.19-.09,2.38-.11,3.57Zm-34.52,31.17h-5.97l-4.64,22.1h-.25l-4.59-22.1h-5.77c-1.7,7.24-3.22,14.46-4.95,21.66h-.29c-1.34-7.22-2.7-14.4-4.07-21.55h-6.19l7.01,32.73h6.19c1.67-7.27,3.09-14.56,5.07-21.76l4.41,21.76h6.19c2.65-10.97,5.23-21.79,7.86-32.84Zm26.3,32.78c-3.25-11.11-6.43-21.98-9.61-32.76h-9.74l-7.95,32.72h6.19l1.64-7.21h8.79c2.75,0,2.12-.23,2.86,2.23.28.91.54,1.84.82,2.75s.45,1.55.68,2.27h6.33Z"/>
      <path class="cls-1" d="m67.57,53.95c-10.92-3.62-18.75-7.59-25.38-12.88-5.64-4.53-11.28-9.2-16.78-13.87-1.96-1.69-3.92-3.46-5.81-5.18-1.17-1.06-2.35-2.13-3.52-3.17-.02-.02-.1-.06-.19-.09-4.64-1.58-8.83-3.93-12.54-7-.83-.63-1.54-1.4-2.1-2.28l-.06-.09C.54,8.28.14,7.02.03,5.73c-.15-1.31.25-2.68,1.13-3.77C2.04.87,3.29.18,4.68.03c.19-.02.38-.03.57-.03.45,0,.9.06,1.33.17,1.21.29,2.45.73,3.62,1.29.75.36,1.44.79,2.08,1.3,2.19,1.6,4.38,3.18,6.57,4.75,1.98,1.12,3.44,2.95,4.1,5.11,7.54,6.75,15.62,13.9,24.15,20.62,6.72,5.1,13.25,9.02,21.33,11.61"/>
      <path class="cls-4" d="m68.51,47.7v3.4c-8.79-2.91-17.19-6.57-24.46-12.37-5.63-4.53-11.2-9.13-16.71-13.81-3.09-2.68-6.19-5.55-9.28-8.31-.38-.32-.82-.57-1.3-.71-4.21-1.44-8.13-3.64-11.55-6.48-.57-.43-1.06-.95-1.44-1.55-.43-.73-.69-1.54-.76-2.38-.13-1.23.75-2.34,1.99-2.47.27-.03.55,0,.81.06,1.07.26,2.1.63,3.09,1.1.55.27,1.07.59,1.55.97,2.26,1.65,4.52,3.28,6.79,4.9,1.49.8,2.57,2.2,2.94,3.85.11.33.33.62.62.82,7.98,7.15,16.01,14.23,24.44,20.87,7.02,5.32,14.88,9.42,23.26,12.11Z"/>
      <path class="cls-1" d="m104.71,114.24c-2.88,4.83-5.62,9.33-8.4,13.82-1.5,2.35-3.06,4.68-4.65,6.96-3.78,5.35-9.13,8.06-15.93,8.06-.57,0-1.15-.02-1.74-.06-4.23-.27-8.33-1.32-12.17-3.1-2.87-1.22-5.64-2.76-8.23-4.59-.55.67-1.19,1.26-1.91,1.77-1.85,1.44-3.79,2.79-5.78,4.03l-.16.09c-1.38.74-2.85,1.27-4.38,1.59-.49.13-1,.2-1.51.2-1.87,0-3.63-.9-4.72-2.42l-.08-.12c-1.29-2-1.24-4.62.12-6.57.53-.87,1.15-1.7,1.83-2.45,3.6-4.05,8.57-6.66,13.98-7.32.3-.05.61-.08.92-.08,1.44,0,2.82.61,3.8,1.67.24.24.51.44.81.61l.1.06c2.06,1.24,3.92,2.33,5.69,3.33,3.51,2.12,7.28,3.42,11.26,3.92.68.08,1.4.12,2.12.12s1.44-.04,2.16-.12c2.49-.26,4.72-1.57,6.14-3.59,1.1-1.51,2.21-3.02,3.15-4.58,2.26-3.72,4.54-7.5,6.82-11.29"/>
      <path class="cls-4" d="m98.92,111.66h3.71c-.15.37-.33.73-.53,1.08-2.77,4.64-5.52,9.17-8.35,13.74-1.46,2.29-2.99,4.56-4.56,6.82-3.67,5.2-8.83,7.13-15.02,6.73-3.85-.25-7.61-1.21-11.11-2.83-3.68-1.57-7.13-3.65-10.22-6.19-.11-.06-.22-.09-.34-.09-.38,1.53-1.31,2.87-2.61,3.76-1.79,1.4-3.65,2.7-5.58,3.9-1.15.62-2.39,1.06-3.67,1.31-1.15.34-2.39-.08-3.09-1.05-.65-1.01-.61-2.33.11-3.29.45-.75.96-1.45,1.55-2.09,3.15-3.55,7.5-5.82,12.22-6.37.76-.16,1.55.1,2.07.68.45.47.98.86,1.55,1.18,1.9,1.14,3.82,2.27,5.75,3.37,3.78,2.28,8,3.74,12.37,4.28,1.66.19,3.33.19,4.98,0,3.32-.35,6.33-2.11,8.26-4.84,1.13-1.55,2.26-3.09,3.26-4.75,3.06-5.04,6.16-10.19,9.25-15.34Z"/>
      <path class="cls-1" d="m139.98,111.67c1.7,1.64,3.45,3.34,5.11,5.18,7.92,8.42,15.18,17.65,21.54,27.38.44.66.86,1.34,1.27,2.03l1.93,3.16c1.99,3.26,3.98,6.52,5.94,9.77.18.29.35.58.52.88.12-.11.25-.22.38-.32,2.68-2.36,5.75-4.11,9.15-5.2,1.23-.35,2.4-.52,3.58-.52,0,0,.23,0,.28,0,2.25,0,4.24,1.35,5.07,3.45.82,2.07.29,4.49-1.32,6.03-.61.62-1.28,1.18-2.01,1.65-4.01,2.73-8.3,5.21-12.71,7.35-.67.32-1.57.69-2.62.69-2.13,0-3.49-1.46-4.49-2.53l-.1-.11-.09-.12c-.44-.57-.8-1.19-1.08-1.84-.2-.39-.4-.78-.59-1.17-.31-.63-.6-1.23-.91-1.71-2.11-3.21-4.1-6.56-6.02-9.79-2.77-4.67-5.64-9.5-8.89-13.88-6.64-9.2-14.15-17.79-22.35-25.58-.57-.53-1.17-1.05-1.77-1.58-.37-.32-.73-.63-1.09-.95"/>
      <path class="cls-4" d="m130.69,111.69h5.01c2.4,2.38,4.87,4.64,7.16,7.18,7.86,8.36,14.97,17.4,21.25,27.01.42.63.82,1.27,1.21,1.92,2.63,4.32,5.27,8.63,7.87,12.95.93,1.55,1.79,3.09,2.82,4.9.33-.36.6-.76.82-1.19.36-.95.97-1.78,1.76-2.41,2.36-2.09,5.13-3.67,8.14-4.64.92-.26,1.87-.39,2.83-.37,1.04-.05,2,.58,2.38,1.55.39.97.14,2.09-.63,2.8-.47.48-.99.91-1.55,1.28-3.95,2.68-8.08,5.08-12.37,7.16-1.55.74-2.07.45-3.6-1.19-.31-.4-.56-.85-.76-1.31-.57-1.07-1.04-2.21-1.69-3.22-5.17-7.84-9.42-16.27-15.02-23.84-6.74-9.34-14.34-18.04-22.69-25.97-.96-.9-1.96-1.73-2.94-2.6Z"/>
      <path class="cls-4" d="m161.07,37.82v-3.57c1.38.72,2.72,1.52,4.01,2.4,5.02,3.87,9.02,8.92,11.65,14.69,1.92,4.05,3.56,8.24,5.2,12.37,2.48,6.51,5.5,12.81,9.02,18.82l.85,1.35c.32-.48.54-.88.82-1.24s.67-1.14,1.16-1.36c1.55-.63,1.72-1.96,2.04-3.28,1.53-6.17,3.68-12.18,6.4-17.93,3.09-6.39,6.08-12.76,9.28-19.09,1.04-1.87,2.19-3.68,3.43-5.43.35-.76,1.09-1.26,1.92-1.3v4.22c-.48.65-.92,1.33-1.33,2.03-4.92,9.1-9.32,18.47-13.18,28.07-1.44,3.76-2.43,7.73-3.62,11.54-.23.77-.45,1.55-.68,2.32-.08.25-.28.53-.2.71.28,1.13.19,2.33-.26,3.4-.02.42.09.84.31,1.21.47.76.88,1.56,1.21,2.4.69,1.8-.21,3.82-2.02,4.51-.67.26-1.4.3-2.1.13-.4,0-.79-.17-1.36-.29-.25.34-.52.67-.82.97-.55.63-1.44.84-2.21.53-.79-.29-1.29-1.08-1.22-1.92-.01-1.26.15-2.51.48-3.73.52-1.58.24-3.31-.76-4.64-4.82-8.06-8.82-16.59-11.93-25.46-1.45-4.03-3.31-7.9-5.54-11.55-2.18-3.59-4.99-6.77-8.29-9.37-.71-.56-1.5-1.02-2.26-1.52Z"/>
      <path class="cls-3" d="m191.79,83.88c.32-.48.54-.88.82-1.24.28-.36.67-1.14,1.16-1.36,1.55-.63,1.72-1.96,2.04-3.28,1.53-6.17,3.68-12.18,6.4-17.93,3.09-6.39,6.08-12.76,9.28-19.09,1.04-1.87,2.19-3.68,3.43-5.43.35-.76,1.09-1.26,1.92-1.3v4.22c-.48.65-.92,1.33-1.33,2.03-4.92,9.1-9.32,18.47-13.18,28.07-1.44,3.76-2.43,7.73-3.62,11.54-.23.77-.45,1.55-.68,2.32-.08.25-.28.53-.2.71.28,1.13.19,2.33-.26,3.4-.02.42-3.39,8.07-3.96,7.95-.25.34-.52.67-.82.97-.55.63-1.44.84-2.21.53-.79-.29-1.29-1.08-1.22-1.92-.01-1.26.15-2.51.48-3.73"/>
      <path class="cls-3" d="m245.33,111.04h3.45c-.26.65-.48,1.33-.79,1.96-1.86,3.91-3.76,7.73-5.61,11.74-1.13,2.48-2.63,4.78-4.44,6.82-2.94,3.46-7.7,4.76-11.99,3.25-2.08-.64-4.05-1.58-5.85-2.8-5.75-3.68-11.22-7.76-16.4-12.2l-.96-.8c-1.67,1.55-3.28,2.97-4.84,4.47-1.72,1.64-3.67,3.03-5.79,4.1-1.54.82-3.31,1.1-5.03.79-1.71-.05-3.05-1.47-3.01-3.18.02-.66.25-1.3.65-1.82.53-.86,1.19-1.63,1.96-2.27,3.18-2.59,6.78-4.61,10.64-5.97.76-.29,1.56-.46,2.37-.51,1.68-.22,3.37.3,4.64,1.42,5.38,4.83,11.14,9.21,17.23,13.1,2.16,1.54,4.65,2.55,7.27,2.94,2.13.32,4.29-.36,5.86-1.84,1.92-1.81,3.47-3.96,4.56-6.36l6.05-12.84Z"/>
      <path class="cls-3" d="m281.54,110.96h8.77c2.63,2.13,5.32,4.19,7.87,6.4,4.83,4.16,9.7,8.28,14.31,12.65,9.81,9.28,18.62,19.56,26.3,30.67l.36.48c.12.07.25.13.39.17.19-.37.39-.74.56-1.13,1.15-2.83,2.91-5.36,5.17-7.41,1.28-1.07,2.67-2,4.15-2.78,1.06-.71,2.46-.61,3.4.25.9.87,1.19,2.2.73,3.37-.18.79-.47,1.55-.85,2.26-1.76,3.09-3.48,6.19-5.43,9.1-.95,1.37-2.1,2.59-3.4,3.62-1.05,1.18-2.86,1.29-4.04.25-.39-.34-.68-.79-.83-1.28-3.04-5.81-6.77-11.22-11.12-16.12-5.64-7.08-11.8-13.73-18.42-19.89-5.61-5.03-11.31-9.95-17.01-14.91-2.93-2.75-6.57-4.62-10.5-5.41-.15-.03-.25-.19-.37-.28Z"/>
      <path class="cls-3" d="m309.37,67.93v-3.68c.54.26,1.1.51,1.55.82,4.08,2.53,8.3,4.81,12.65,6.82,4.87,2.14,10.06,3.45,15.36,3.88,2.21.23,4.42.39,6.73.57.9-1.87,2.66-2.29,4.49-2.63,4.42-.73,8.96.03,12.9,2.17.5.25.95.57,1.36.94.83.65.98,1.84.33,2.67-.36.46-.91.73-1.49.73-2.9.37-5.83.42-8.74.17-4.42-.49-8.85-.9-13.29-1.16-8.86-.5-17.47-3.07-25.15-7.52l-6.7-3.79Z"/>
    </g>
  </g>
</svg>