<svg xmlns="http://www.w3.org/2000/svg" viewBox="0 0 234.12 108.12"><defs><style>.cls-1{fill:#8f4a9c;}.cls-2{fill:#5f5eaa;}.cls-3{fill:#1a1818;}.cls-4{fill:#181617;}.cls-5{fill:#181616;}.cls-6{fill:#191818;}.cls-7{fill:#191717;}.cls-8{fill:#6560ab;}</style></defs><g id="Layer_2" data-name="Layer 2"><g id="Layer_1-2" data-name="Layer 1"><path class="cls-1" d="M138.19,20.11c0-1.27.05-2.54.05-3.82,0-2.12,0-4.24,0-6.34.73-.22,58.34-.27,59.61,0v1.81q0,12.15.07,24.31c0,1.18.07,2.35.1,3.53,0,.79,0,1.58,0,2.38,0,.46-.05.91-.05,1.37q0,12.63,0,25.27v1.08l-3.48,0-8.81.09-5.67,0h-4.85c-.88-4.63-3.21-7.07-6.81-7.23a6.84,6.84,0,0,0-3.69.77A5.64,5.64,0,0,0,162,66c-.47,1.16-.81,2.38-1.23,3.66l-1.91.1h-2.23c-.39,0-.78,0-1.17,0H138.25c0-.41-.05-.75-.05-1.09l0-39.17c0-2.22,0-4.44,0-6.66C138.19,21.93,138.19,21,138.19,20.11Zm7.09,21.39a1.34,1.34,0,0,0,0,.36,6.84,6.84,0,0,0,3.94,5.28,9.68,9.68,0,0,0,7.1.35,6.71,6.71,0,0,0,3.06-2.09c2.48-2.9,2.46-8.39-2.32-10.3-1-.4-2-.68-3.05-1.05a15.53,15.53,0,0,1-2.49-1,2.36,2.36,0,0,1-.21-3.94,2.68,2.68,0,0,1,3.82.32,13.44,13.44,0,0,1,1,1.44h4.19a6.27,6.27,0,0,0-2.45-4.72,7.7,7.7,0,0,0-10,.7c-3.4,3.48-2.37,8.5,2.11,10.32.61.24,1.24.44,1.86.65s1.33.4,2,.65a7.69,7.69,0,0,1,1.67.84,2.6,2.6,0,0,1,.12,4.12,3.56,3.56,0,0,1-5.28-1.07,1.38,1.38,0,0,0-1.58-.93c-.87.06-1.74,0-2.6,0C145.81,41.43,145.55,41.47,145.28,41.5ZM164.21,25V47.54h4.39c.25-1.36.17-21.83-.08-22.57Z"/><path class="cls-2" d="M102.18,22.46c0,.65-.05,1.3,0,2,0,7.31.15,14.63.13,21.95,0,7.68-.17,15.35-.27,23,0,.22,0,.45,0,.8h-1.07l-13.73,0c-.46,0-.91,0-1.37,0H82.54c-1.73,0-3.46,0-5.18,0l-11.83,0c-.39,0-.78,0-1.17,0H62l-1.57,0-16.86,0H42.37V32.32c0-.42,0-.85,0-1.27v-2.2c0-.68,0-1.37,0-2.05,0-5.13,0-10.26,0-15.39V10.29H65.26A6.6,6.6,0,0,0,68,16.06a7.09,7.09,0,0,0,4.68,1.42c3.53-.17,5.79-2.6,6.51-7.11l23-.19c0,.43.06.74.06,1.05,0,2.61,0,5.23,0,7.84,0,.36,0,.72,0,1.08C102.2,20.92,102.19,21.69,102.18,22.46ZM79.86,42.61H76l-3,14.29-.16,0L69.87,42.61H66.14c-1.1,4.68-2.08,9.35-3.2,14l-.19,0q-1.3-7-2.63-13.93h-4l4.53,21.16h4c1.08-4.7,2-9.41,3.28-14.07l2.85,14.07h4C76.49,56.75,78.16,49.75,79.86,42.61Zm17,21.19c-2.1-7.18-4.16-14.21-6.21-21.18h-6.3L79.21,63.77h4l1.06-4.66h5.68c1.78,0,1.37-.15,1.85,1.44.18.59.35,1.19.53,1.78s.29,1,.44,1.47Z"/><path class="cls-3" d="M102.18,22.46c0-.77,0-1.54,0-2.31a25,25,0,0,1,2.59,1.55,25.11,25.11,0,0,1,7.53,9.5c1.24,2.62,2.3,5.33,3.36,8a81.89,81.89,0,0,0,5.83,12.17l.55.87c.21-.31.35-.57.53-.8s.43-.74.75-.88c1-.41,1.11-1.27,1.32-2.12a61.78,61.78,0,0,1,4.14-11.59c2-4.13,3.93-8.25,6-12.34A37.82,37.82,0,0,1,137,21a1.45,1.45,0,0,1,1.24-.84c0,.91,0,1.82,0,2.73a14.06,14.06,0,0,0-.86,1.31,176.33,176.33,0,0,0-8.52,18.15c-.93,2.43-1.57,5-2.34,7.46-.15.5-.29,1-.44,1.5-.05.16-.18.34-.13.46a3.53,3.53,0,0,1-.17,2.2,1.38,1.38,0,0,0,.2.78,9.78,9.78,0,0,1,.78,1.55,2.26,2.26,0,0,1-2.66,3c-.26,0-.51-.11-.88-.19a5.72,5.72,0,0,1-.53.63,1.26,1.26,0,0,1-1.43.34,1.22,1.22,0,0,1-.79-1.24,8.76,8.76,0,0,1,.31-2.41,3.29,3.29,0,0,0-.49-3,90.07,90.07,0,0,1-7.71-16.46A41.21,41.21,0,0,0,109,29.5a22.83,22.83,0,0,0-5.36-6.06C103.18,23.08,102.67,22.78,102.18,22.46Z"/><path class="cls-4" d="M180.06,69.75l5.67,0c1.7,1.38,3.44,2.71,5.09,4.14,3.12,2.69,6.27,5.35,9.25,8.18a125.79,125.79,0,0,1,17,19.83l.23.31a1.05,1.05,0,0,0,.25.11c.12-.24.25-.48.36-.73a13.17,13.17,0,0,1,3.34-4.79A15.48,15.48,0,0,1,223.93,95a1.79,1.79,0,0,1,2.2.16,2,2,0,0,1,.47,2.18,5.85,5.85,0,0,1-.55,1.46c-1.14,2-2.25,4-3.51,5.88a10.85,10.85,0,0,1-2.2,2.34,1.85,1.85,0,0,1-3.15-.67A52,52,0,0,0,210,95.93a117.81,117.81,0,0,0-11.91-12.86c-3.63-3.25-7.31-6.43-11-9.64a13.94,13.94,0,0,0-6.79-3.5C180.2,69.91,180.14,69.81,180.06,69.75Z"/><path class="cls-5" d="M156.65,69.8h2.23c-.17.42-.31.86-.51,1.27-1.2,2.53-2.43,5-3.63,7.59a17.61,17.61,0,0,1-2.87,4.41,7.08,7.08,0,0,1-7.75,2.1,14.31,14.31,0,0,1-3.78-1.81,93.69,93.69,0,0,1-10.6-7.89l-.62-.52c-1.08,1-2.12,1.92-3.13,2.89a15.57,15.57,0,0,1-3.74,2.65A5,5,0,0,1,119,81a2,2,0,0,1-1.52-3.23,5.93,5.93,0,0,1,1.27-1.47,23,23,0,0,1,6.88-3.86,5.3,5.3,0,0,1,1.53-.33,3.77,3.77,0,0,1,3,.92,86.49,86.49,0,0,0,11.14,8.47A10.83,10.83,0,0,0,146,83.4a4.55,4.55,0,0,0,3.79-1.19,13.2,13.2,0,0,0,2.95-4.11Z"/><path class="cls-6" d="M82.54,70.22h3.24c1.55,1.54,3.15,3,4.63,4.64a126.58,126.58,0,0,1,13.74,17.46c.27.41.53.82.78,1.24,1.7,2.79,3.41,5.58,5.09,8.37.6,1,1.16,2,1.82,3.17a3.44,3.44,0,0,0,.53-.77,3.62,3.62,0,0,1,1.14-1.56,14.72,14.72,0,0,1,5.26-3,6.26,6.26,0,0,1,1.83-.24,1.58,1.58,0,0,1,1.54,1,1.64,1.64,0,0,1-.41,1.81,5.84,5.84,0,0,1-1,.83,63.61,63.61,0,0,1-8,4.63c-1,.48-1.34.29-2.33-.77a3.76,3.76,0,0,1-.49-.85c-.37-.69-.67-1.43-1.09-2.08-3.34-5.07-6.09-10.52-9.71-15.41A120.15,120.15,0,0,0,84.44,71.9C83.82,71.32,83.17,70.78,82.54,70.22Z"/><path class="cls-7" d="M62,70.2h2.4a5.66,5.66,0,0,1-.34.7c-1.79,3-3.57,5.93-5.4,8.88Q57.24,82,55.71,84.19C53.34,87.55,50,88.8,46,88.54a20.13,20.13,0,0,1-7.18-1.83,27.23,27.23,0,0,1-6.61-4,.53.53,0,0,0-.22-.06,4.12,4.12,0,0,1-1.69,2.43,40.89,40.89,0,0,1-3.61,2.52,8.49,8.49,0,0,1-2.37.85,1.82,1.82,0,0,1-2-.68,1.87,1.87,0,0,1,.07-2.13,8.48,8.48,0,0,1,1-1.35,12.51,12.51,0,0,1,7.9-4.12,1.4,1.4,0,0,1,1.34.44,4.23,4.23,0,0,0,1,.76c1.23.74,2.47,1.47,3.72,2.18a20.37,20.37,0,0,0,8,2.77,14.45,14.45,0,0,0,3.22,0,7.48,7.48,0,0,0,5.34-3.13c.73-1,1.46-2,2.11-3.07C58,76.86,60,73.53,62,70.2Z"/><path class="cls-6" d="M42.34,28.85v2.2c-5.68-1.88-11.11-4.25-15.81-8q-5.46-4.39-10.8-8.93c-2-1.73-4-3.59-6-5.37a2.37,2.37,0,0,0-.84-.46A23.65,23.65,0,0,1,1.42,4.1a3.82,3.82,0,0,1-.93-1A3.62,3.62,0,0,1,0,1.56,1.45,1.45,0,0,1,1.81,0a10.31,10.31,0,0,1,2,.71,5.25,5.25,0,0,1,1,.63Q7,2.94,9.2,4.51A3.76,3.76,0,0,1,11.1,7a1.06,1.06,0,0,0,.4.53c5.16,4.62,10.35,9.2,15.8,13.49A50.42,50.42,0,0,0,42.34,28.85Z"/><path class="cls-3" d="M198.05,41.93c0-.8,0-1.59,0-2.38.35.17.71.33,1,.53a76.65,76.65,0,0,0,8.18,4.41A31,31,0,0,0,217.16,47c1.43.15,2.86.25,4.35.37.58-1.21,1.72-1.48,2.9-1.7a13.06,13.06,0,0,1,8.34,1.4,3.84,3.84,0,0,1,.88.61,1.23,1.23,0,0,1-.75,2.2,26.67,26.67,0,0,1-5.65.11c-2.86-.32-5.72-.58-8.59-.75a36.54,36.54,0,0,1-16.26-4.86Z"/><path class="cls-8" d="M90.4,55.59H85.05c.47-2.62,1.12-5.12,1.66-7.71h1.7C89.05,50.37,89.71,52.91,90.4,55.59Z"/></g></g></svg>