<?xml version="1.0" encoding="UTF-8"?>
<svg id="Layer_2" data-name="Layer 2" xmlns="http://www.w3.org/2000/svg" viewBox="0 0 362.13 167.21">
  <defs>
    <style>
      .cls-1 {
        fill: #6560ab;
      }

      .cls-2 {
        fill: #8f4a9c;
      }

      .cls-3 {
        fill: #5f5eaa;
      }
    </style>
  </defs>
  <g id="Layer_1-2" data-name="Layer 1">
    <g>
      <path class="cls-2" d="m213.77,31.18c0-1.96.08-3.93.08-5.91v-9.81c1.13-.34,90.24-.42,92.21,0v2.8c0,12.53.04,25.06.11,37.6,0,1.83.11,3.64.15,5.46v3.68c0,.71-.08,1.41-.08,2.12v40.76h-5.38l-13.63.14h-16.27c-1.36-7.16-4.97-10.94-10.53-11.18-1.98-.15-3.95.27-5.71,1.19-1.8.86-3.26,2.32-4.11,4.13-.73,1.79-1.25,3.68-1.9,5.66l-2.95.15h-31.88c0-.63-.08-1.16-.08-1.69V35.4c-.02-1.41-.02-2.85-.02-4.22Zm10.97,33.09c-.03.18-.03.37,0,.56.5,3.59,2.8,6.67,6.09,8.17,3.46,1.57,7.39,1.76,10.98.54,1.85-.61,3.49-1.73,4.73-3.23,3.84-4.49,3.81-12.98-3.59-15.93-1.55-.62-3.09-1.05-4.72-1.62-1.33-.4-2.61-.92-3.85-1.55-1.74-1.02-2.33-3.25-1.32-4.99.25-.43.59-.81.99-1.1,1.73-1.5,4.35-1.31,5.85.42.02.02.04.05.06.07.56.71,1.08,1.45,1.55,2.23h6.48c-.12-2.88-1.51-5.55-3.79-7.3-4.72-3.5-11.29-3.04-15.47,1.08-5.26,5.38-3.67,13.15,3.26,15.96.94.37,1.92.68,2.88,1.01s2.06.62,3.09,1.01c.91.33,1.78.76,2.58,1.3,1.8,1.3,2.2,3.82.9,5.62-.2.28-.44.54-.71.76-2.41,1.86-5.86,1.42-7.72-.99-.16-.21-.31-.43-.44-.67-.33-1.03-1.38-1.65-2.44-1.44-1.35.09-2.69,0-4.02,0-.56,0-.96.06-1.38.11Zm29.28-25.52v34.87h6.79c.39-2.1.26-33.77-.12-34.91l-6.67.05Z"/>
      <path class="cls-1" d="m139.85,86.06h-8.28c.73-4.05,1.73-7.92,2.57-11.93h2.63c.99,3.85,2.01,7.78,3.08,11.93Z"/>
      <path class="cls-3" d="m158.07,34.82c0,1.01-.08,2.01,0,3.09,0,11.31.23,22.63.2,33.95,0,11.88-.26,23.74-.42,35.58v1.24h-92.3V15.99h35.41c-.22,3.51,1.38,6.88,4.24,8.93,2.08,1.57,4.64,2.35,7.24,2.2,5.46-.26,8.96-4.02,10.07-11l35.58-.29c0,.67.09,1.14.09,1.62v13.8c-.08,1.19-.09,2.38-.11,3.57Zm-34.52,31.17h-5.97l-4.64,22.1h-.25l-4.59-22.1h-5.77c-1.7,7.24-3.22,14.46-4.95,21.66h-.29c-1.34-7.22-2.7-14.4-4.07-21.55h-6.19l7.01,32.73h6.19c1.67-7.27,3.09-14.56,5.07-21.76l4.41,21.76h6.19c2.65-10.97,5.23-21.79,7.86-32.84Zm26.3,32.78c-3.25-11.11-6.43-21.98-9.61-32.76h-9.74l-7.95,32.72h6.19l1.64-7.21h8.79c2.75,0,2.12-.23,2.86,2.23.28.91.54,1.84.82,2.75s.45,1.55.68,2.27h6.33Z"/>
      <path class="cls-3" d="m65.51,44.7v3.4c-8.79-2.91-17.19-6.57-24.46-12.37-5.63-4.53-11.2-9.13-16.71-13.81-3.09-2.68-6.19-5.55-9.28-8.31-.38-.32-.82-.57-1.3-.71-4.21-1.44-8.13-3.64-11.55-6.48-.57-.43-1.06-.95-1.44-1.55C.34,4.14.08,3.33.01,2.49-.12,1.26.77.15,2,.01c.27-.03.55,0,.81.06,1.07.26,2.1.63,3.09,1.1.55.27,1.07.59,1.55.97,2.26,1.65,4.52,3.28,6.79,4.9,1.49.8,2.57,2.2,2.94,3.85.11.33.33.62.62.82,7.98,7.15,16.01,14.23,24.44,20.87,7.02,5.32,14.88,9.42,23.26,12.11Z"/>
      <path class="cls-3" d="m95.92,108.66h3.71c-.15.37-.33.73-.53,1.08-2.77,4.64-5.52,9.17-8.35,13.74-1.46,2.29-2.99,4.56-4.56,6.82-3.67,5.2-8.83,7.13-15.02,6.73-3.85-.25-7.61-1.21-11.11-2.83-3.68-1.57-7.13-3.65-10.22-6.19-.11-.06-.22-.09-.34-.09-.38,1.53-1.31,2.87-2.61,3.76-1.79,1.4-3.65,2.7-5.58,3.9-1.15.62-2.39,1.06-3.67,1.31-1.15.34-2.39-.08-3.09-1.05-.65-1.01-.61-2.33.11-3.29.45-.75.96-1.45,1.55-2.09,3.15-3.55,7.5-5.82,12.22-6.37.76-.16,1.55.1,2.07.68.45.47.98.86,1.55,1.18,1.9,1.14,3.82,2.27,5.75,3.37,3.78,2.28,8,3.74,12.37,4.28,1.66.19,3.33.19,4.98,0,3.32-.35,6.33-2.11,8.26-4.84,1.13-1.55,2.26-3.09,3.26-4.75,3.06-5.04,6.16-10.19,9.25-15.34Z"/>
      <path class="cls-3" d="m127.69,108.69h5.01c2.4,2.38,4.87,4.64,7.16,7.18,7.86,8.36,14.97,17.4,21.25,27.01.42.63.82,1.27,1.21,1.92,2.63,4.32,5.27,8.63,7.87,12.95.93,1.55,1.79,3.09,2.82,4.9.33-.36.6-.76.82-1.19.36-.95.97-1.78,1.76-2.41,2.36-2.09,5.13-3.67,8.14-4.64.92-.26,1.87-.39,2.83-.37,1.04-.05,2,.58,2.38,1.55.39.97.14,2.09-.63,2.8-.47.48-.99.91-1.55,1.28-3.95,2.68-8.08,5.08-12.37,7.16-1.55.74-2.07.45-3.6-1.19-.31-.4-.56-.85-.76-1.31-.57-1.07-1.04-2.21-1.69-3.22-5.17-7.84-9.42-16.27-15.02-23.84-6.74-9.34-14.34-18.04-22.69-25.97-.96-.9-1.96-1.73-2.94-2.6Z"/>
      <path class="cls-3" d="m158.07,34.82v-3.57c1.38.72,2.72,1.52,4.01,2.4,5.02,3.87,9.02,8.92,11.65,14.69,1.92,4.05,3.56,8.24,5.2,12.37,2.48,6.51,5.5,12.81,9.02,18.82l.85,1.35c.32-.48.54-.88.82-1.24s.67-1.14,1.16-1.36c1.55-.63,1.72-1.96,2.04-3.28,1.53-6.17,3.68-12.18,6.4-17.93,3.09-6.39,6.08-12.76,9.28-19.09,1.04-1.87,2.19-3.68,3.43-5.43.35-.76,1.09-1.26,1.92-1.3v4.22c-.48.65-.92,1.33-1.33,2.03-4.92,9.1-9.32,18.47-13.18,28.07-1.44,3.76-2.43,7.73-3.62,11.54-.23.77-.45,1.55-.68,2.32-.08.25-.28.53-.2.71.28,1.13.19,2.33-.26,3.4-.02.42.09.84.31,1.21.47.76.88,1.56,1.21,2.4.69,1.8-.21,3.82-2.02,4.51-.67.26-1.4.3-2.1.13-.4,0-.79-.17-1.36-.29-.25.34-.52.67-.82.97-.55.63-1.44.84-2.21.53-.79-.29-1.29-1.08-1.22-1.92-.01-1.26.15-2.51.48-3.73.52-1.58.24-3.31-.76-4.64-4.82-8.06-8.82-16.59-11.93-25.46-1.45-4.03-3.31-7.9-5.54-11.55-2.18-3.59-4.99-6.77-8.29-9.37-.71-.56-1.5-1.02-2.26-1.52Z"/>
      <path class="cls-2" d="m188.79,80.88c.32-.48.54-.88.82-1.24.28-.36.67-1.14,1.16-1.36,1.55-.63,1.72-1.96,2.04-3.28,1.53-6.17,3.68-12.18,6.4-17.93,3.09-6.39,6.08-12.76,9.28-19.09,1.04-1.87,2.19-3.68,3.43-5.43.35-.76,1.09-1.26,1.92-1.3v4.22c-.48.65-.92,1.33-1.33,2.03-4.92,9.1-9.32,18.47-13.18,28.07-1.44,3.76-2.43,7.73-3.62,11.54-.23.77-.45,1.55-.68,2.32-.08.25-.28.53-.2.71.28,1.13.19,2.33-.26,3.4-.02.42-3.39,8.07-3.96,7.95-.25.34-.52.67-.82.97-.55.63-1.44.84-2.21.53-.79-.29-1.29-1.08-1.22-1.92-.01-1.26.15-2.51.48-3.73"/>
      <path class="cls-2" d="m242.32,108.04h3.45c-.26.65-.48,1.33-.79,1.96-1.86,3.91-3.76,7.73-5.61,11.74-1.13,2.48-2.63,4.78-4.44,6.82-2.94,3.46-7.7,4.76-11.99,3.25-2.08-.64-4.05-1.58-5.85-2.8-5.75-3.68-11.22-7.76-16.4-12.2l-.96-.8c-1.67,1.55-3.28,2.97-4.84,4.47-1.72,1.64-3.67,3.03-5.79,4.1-1.54.82-3.31,1.1-5.03.79-1.71-.05-3.05-1.47-3.01-3.18.02-.66.25-1.3.65-1.82.53-.86,1.19-1.63,1.96-2.27,3.18-2.59,6.78-4.61,10.64-5.97.76-.29,1.56-.46,2.37-.51,1.68-.22,3.37.3,4.64,1.42,5.38,4.83,11.14,9.21,17.23,13.1,2.16,1.54,4.65,2.55,7.27,2.94,2.13.32,4.29-.36,5.86-1.84,1.92-1.81,3.47-3.96,4.56-6.36l6.05-12.84Z"/>
      <path class="cls-2" d="m278.53,107.96h8.77c2.63,2.13,5.32,4.19,7.87,6.4,4.83,4.16,9.7,8.28,14.31,12.65,9.81,9.28,18.62,19.56,26.3,30.67l.36.48c.12.07.25.13.39.17.19-.37.39-.74.56-1.13,1.15-2.83,2.91-5.36,5.17-7.41,1.28-1.07,2.67-2,4.15-2.78,1.06-.71,2.46-.61,3.4.25.9.87,1.19,2.2.73,3.37-.18.79-.47,1.55-.85,2.26-1.76,3.09-3.48,6.19-5.43,9.1-.95,1.37-2.1,2.59-3.4,3.62-1.05,1.18-2.86,1.29-4.04.25-.39-.34-.68-.79-.83-1.28-3.04-5.81-6.77-11.22-11.12-16.12-5.64-7.08-11.8-13.73-18.42-19.89-5.61-5.03-11.31-9.95-17.01-14.91-2.93-2.75-6.57-4.62-10.5-5.41-.15-.03-.25-.19-.37-.28Z"/>
      <path class="cls-2" d="m306.36,64.93v-3.68c.54.26,1.1.51,1.55.82,4.08,2.53,8.3,4.81,12.65,6.82,4.87,2.14,10.06,3.45,15.36,3.88,2.21.23,4.42.39,6.73.57.9-1.87,2.66-2.29,4.49-2.63,4.42-.73,8.96.03,12.9,2.17.5.25.95.57,1.36.94.83.65.98,1.84.33,2.67-.36.46-.91.73-1.49.73-2.9.37-5.83.42-8.74.17-4.42-.49-8.85-.9-13.29-1.16-8.86-.5-17.47-3.07-25.15-7.52l-6.7-3.79Z"/>
    </g>
  </g>
</svg>