<svg xmlns="http://www.w3.org/2000/svg" viewBox="0 0 462.44 87.59"><defs><style>.cls-1{fill:#8f4a9c;}.cls-2{fill:#5f5eaa;}.cls-3{fill:#1a1818;}.cls-4{fill:#181617;}.cls-5{fill:#181616;}.cls-6{fill:#191818;}.cls-7{fill:#191717;}.cls-8{fill:#6560ab;}.cls-9{fill:#231f20;}</style></defs><g id="Layer_2" data-name="Layer 2"><g id="Layer_1-2" data-name="Layer 1"><path class="cls-1" d="M111.94,16.29c0-1,0-2.06,0-3.09,0-1.72,0-3.44,0-5.14.6-.18,47.26-.22,48.3,0V9.48q0,9.86.05,19.7c0,.95.06,1.9.09,2.86,0,.64,0,1.28,0,1.93,0,.37,0,.74,0,1.11q0,10.23,0,20.47v.88l-2.82,0-7.14.07-4.59,0h-3.93c-.72-3.75-2.6-5.72-5.52-5.85a5.53,5.53,0,0,0-3,.62,4.57,4.57,0,0,0-2.18,2.22c-.38.94-.65,1.93-1,3l-1.55.08H126.9c-.31,0-.63,0-1,0H112c0-.33,0-.6,0-.88q0-15.87,0-31.73c0-1.8,0-3.6,0-5.4C112,17.77,112,17,111.94,16.29Zm5.75,17.33a.81.81,0,0,0,0,.29,5.54,5.54,0,0,0,3.19,4.28,7.88,7.88,0,0,0,5.75.28,5.41,5.41,0,0,0,2.48-1.69c2-2.35,2-6.8-1.88-8.35-.81-.32-1.65-.55-2.47-.85a13.19,13.19,0,0,1-2-.83,1.91,1.91,0,0,1-.17-3.19,2.18,2.18,0,0,1,3.1.26,9.8,9.8,0,0,1,.78,1.16h3.4a5.07,5.07,0,0,0-2-3.82,6.23,6.23,0,0,0-8.09.57,4.94,4.94,0,0,0,1.71,8.35c.49.2,1,.37,1.51.53s1.08.33,1.6.53a6.83,6.83,0,0,1,1.35.68,2.11,2.11,0,0,1,.09,3.34,2.88,2.88,0,0,1-4.27-.87,1.13,1.13,0,0,0-1.29-.75c-.7,0-1.4,0-2.1,0C118.12,33.56,117.91,33.6,117.69,33.62ZM133,20.23V38.51h3.55c.2-1.1.14-17.68-.07-18.28Z"/><path class="cls-2" d="M82.78,18.19c0,.53,0,1.06,0,1.59,0,5.93.12,11.86.11,17.78,0,6.22-.14,12.44-.22,18.66,0,.18,0,.36,0,.65h-12l-1.11,0H66.86c-1.4,0-2.79,0-4.19,0H53.09c-.32,0-.64,0-1,0h-2c-.42,0-.85,0-1.27,0l-13.65,0h-.94V26.18c0-.34,0-.68,0-1V23.38c0-.56,0-1.12,0-1.67V8.33H52.87A5.34,5.34,0,0,0,55.07,13a5.74,5.74,0,0,0,3.79,1.15c2.86-.14,4.69-2.11,5.28-5.76l18.59-.15c0,.34,0,.6,0,.85q0,3.17,0,6.35c0,.29,0,.58,0,.87C82.79,16.94,82.78,17.57,82.78,18.19ZM64.69,34.52H61.53L59.07,46.09h-.13L56.6,34.52h-3c-.89,3.79-1.69,7.57-2.59,11.32l-.15,0L48.71,34.54H45.48c1.24,5.75,2.46,11.43,3.68,17.14h3.26c.88-3.81,1.63-7.63,2.66-11.4l2.31,11.4H60.6ZM78.45,51.68c-1.7-5.82-3.37-11.5-5-17.15H68.31c-1.38,5.72-2.76,11.41-4.14,17.13H67.4l.86-3.77h4.6c1.44,0,1.11-.13,1.5,1.16.15.48.28,1,.43,1.45s.24.8.35,1.18Z"/><path class="cls-3" d="M82.78,18.19c0-.62,0-1.25,0-1.87a22,22,0,0,1,2.1,1.26,20.28,20.28,0,0,1,6.1,7.7c1,2.12,1.86,4.31,2.73,6.5a65.59,65.59,0,0,0,4.72,9.86c.13.22.27.43.44.7.17-.25.29-.45.43-.64s.35-.6.61-.71c.79-.34.9-1,1.07-1.72a50.58,50.58,0,0,1,3.35-9.4c1.58-3.34,3.19-6.68,4.83-10A32.26,32.26,0,0,1,110.94,17a1.18,1.18,0,0,1,1-.68c0,.74,0,1.48,0,2.21a12,12,0,0,0-.69,1.06,140.43,140.43,0,0,0-6.9,14.7c-.75,2-1.27,4-1.9,6.05l-.36,1.22c0,.12-.14.27-.1.37a2.86,2.86,0,0,1-.14,1.78,1,1,0,0,0,.17.63,9.87,9.87,0,0,1,.63,1.26A1.84,1.84,0,0,1,100.5,48c-.21,0-.41-.09-.71-.15a5.82,5.82,0,0,1-.43.5,1,1,0,0,1-1.16.28,1,1,0,0,1-.64-1,7.07,7.07,0,0,1,.25-2,2.66,2.66,0,0,0-.4-2.45,73.24,73.24,0,0,1-6.24-13.33,33.71,33.71,0,0,0-2.87-6A18.64,18.64,0,0,0,84,19C83.58,18.7,83.17,18.46,82.78,18.19Z"/><path class="cls-4" d="M145.87,56.5l4.59,0c1.38,1.12,2.79,2.19,4.13,3.35,2.52,2.18,5.07,4.33,7.49,6.63a102.44,102.44,0,0,1,13.78,16.06,1.64,1.64,0,0,0,.19.25s.09.05.2.1c.1-.2.21-.39.3-.6a10.74,10.74,0,0,1,2.7-3.88A12.17,12.17,0,0,1,181.41,77a1.45,1.45,0,0,1,1.78.13,1.62,1.62,0,0,1,.38,1.76,5.29,5.29,0,0,1-.44,1.19c-.93,1.6-1.83,3.22-2.85,4.76a8.91,8.91,0,0,1-1.78,1.9,1.51,1.51,0,0,1-2.56-.54,42.33,42.33,0,0,0-5.84-8.48,97.07,97.07,0,0,0-9.65-10.42c-2.94-2.63-5.93-5.21-8.9-7.8a11.28,11.28,0,0,0-5.5-2.84C146,56.64,145.93,56.55,145.87,56.5Z"/><path class="cls-5" d="M126.9,56.54h1.81c-.14.34-.25.69-.41,1-1,2.06-2,4.1-2.94,6.16A15.24,15.24,0,0,1,123,67.29a5.73,5.73,0,0,1-6.28,1.7,11.67,11.67,0,0,1-3.06-1.47,76.51,76.51,0,0,1-8.59-6.39c-.19-.17-.4-.34-.5-.42-.87.8-1.72,1.56-2.54,2.34a12.44,12.44,0,0,1-3,2.15,4,4,0,0,1-2.61.4A1.64,1.64,0,0,1,95.19,63a4.66,4.66,0,0,1,1-1.19,18.72,18.72,0,0,1,5.58-3.13A4.05,4.05,0,0,1,103,58.4a3.07,3.07,0,0,1,2.42.74,67.63,67.63,0,0,0,9,6.86,8.85,8.85,0,0,0,3.77,1.57,3.71,3.71,0,0,0,3.08-1,10.75,10.75,0,0,0,2.38-3.33Z"/><path class="cls-6" d="M66.86,56.88h2.63c1.25,1.25,2.55,2.46,3.75,3.77A102,102,0,0,1,84.37,74.79c.22.33.43.67.64,1l4.12,6.77c.48.81.94,1.64,1.47,2.57a3.35,3.35,0,0,0,.43-.62A2.85,2.85,0,0,1,92,83.26a11.92,11.92,0,0,1,4.26-2.4,5.23,5.23,0,0,1,1.48-.19A1.27,1.27,0,0,1,99,81.5,1.31,1.31,0,0,1,98.61,83a4.46,4.46,0,0,1-.77.67,50.5,50.5,0,0,1-6.44,3.75c-.81.4-1.09.24-1.9-.62a3.09,3.09,0,0,1-.39-.69c-.3-.56-.54-1.15-.89-1.68-2.7-4.11-4.93-8.52-7.86-12.48a97.72,97.72,0,0,0-12-13.67C67.9,57.78,67.38,57.34,66.86,56.88Z"/><path class="cls-7" d="M50.19,56.87h2a6,6,0,0,1-.28.57c-1.45,2.4-2.89,4.8-4.37,7.19C46.74,65.84,46,67,45.13,68.2a8.33,8.33,0,0,1-7.87,3.53,16.14,16.14,0,0,1-5.82-1.49A21.79,21.79,0,0,1,26.08,67s-.09,0-.17,0a3.41,3.41,0,0,1-1.37,2,34.83,34.83,0,0,1-2.93,2,7,7,0,0,1-1.92.69,1.47,1.47,0,0,1-1.63-.56,1.51,1.51,0,0,1,.05-1.72,7.06,7.06,0,0,1,.78-1.1A10.15,10.15,0,0,1,25.3,65a1.1,1.1,0,0,1,1.07.35,3.93,3.93,0,0,0,.79.62c1,.6,2,1.19,3,1.77A16.53,16.53,0,0,0,36.65,70a12,12,0,0,0,2.61,0,6.07,6.07,0,0,0,4.33-2.54c.59-.81,1.18-1.63,1.71-2.48C47,62.27,48.56,59.56,50.19,56.87Z"/><path class="cls-6" d="M34.3,23.38v1.77a40.06,40.06,0,0,1-12.81-6.5q-4.43-3.55-8.74-7.24C11.09,10,9.52,8.51,7.9,7.07a2.16,2.16,0,0,0-.68-.38A19.15,19.15,0,0,1,1.15,3.32,3,3,0,0,1,.4,2.51,2.83,2.83,0,0,1,0,1.26,1.17,1.17,0,0,1,1.47,0,8.44,8.44,0,0,1,3.11.61a4.31,4.31,0,0,1,.8.51L7.46,3.65A3.1,3.1,0,0,1,9,5.67a.81.81,0,0,0,.31.43C13.5,9.84,17.7,13.55,22.12,17A41,41,0,0,0,34.3,23.38Z"/><path class="cls-3" d="M160.44,34c0-.65,0-1.29,0-1.93.28.14.57.26.84.43A62.06,62.06,0,0,0,167.89,36a25.16,25.16,0,0,0,8,2.06c1.16.12,2.32.2,3.52.3A2.84,2.84,0,0,1,181.79,37a10.57,10.57,0,0,1,6.76,1.13,3.24,3.24,0,0,1,.71.5,1,1,0,0,1-.61,1.78,21.24,21.24,0,0,1-4.58.09c-2.31-.26-4.63-.47-6.95-.61A29.52,29.52,0,0,1,164,36Z"/><path class="cls-8" d="M73.23,45H68.9c.38-2.12.91-4.15,1.35-6.24h1.37Z"/><path class="cls-9" d="M233.1,45.91l.37.37a.86.86,0,0,1,.21.63c0,.82-.39,1.24-1.16,1.24a1.68,1.68,0,0,1-.91-.25,22.41,22.41,0,0,0-3.9-1.82,12.41,12.41,0,0,0-4.23-.75,10.53,10.53,0,0,0-4.86,1.12,12.4,12.4,0,0,0-3.81,3A14.58,14.58,0,0,0,212.24,54a15.5,15.5,0,0,0-1,5.47L211,82.83c0,.77-.41,1.16-1.24,1.16a1,1,0,0,1-1.16-1.16V44.67a1,1,0,0,1,1.16-1.17c.83,0,1.24.39,1.24,1.17v6.8a12.31,12.31,0,0,1,4.77-6.35,13.07,13.07,0,0,1,7.51-2.28,16.67,16.67,0,0,1,5.19.83A18.19,18.19,0,0,1,233.1,45.91Z"/><path class="cls-9" d="M237.79,68.31V44.58A1.09,1.09,0,0,1,239,43.34c.78,0,1.16.41,1.16,1.24V68.39a13.71,13.71,0,0,0,1.17,5.68,14.07,14.07,0,0,0,3.15,4.53,14.6,14.6,0,0,0,4.64,3,14.84,14.84,0,0,0,5.65,1.08,14.52,14.52,0,0,0,5.72-1.12,14.89,14.89,0,0,0,4.65-3.07,14.11,14.11,0,0,0,3.11-4.6,14.71,14.71,0,0,0,1.12-5.73V44.58a1.2,1.2,0,1,1,2.4,0V82.83a1.2,1.2,0,0,1-2.4,0V76.44a14.77,14.77,0,0,1-5.89,6.26,16.74,16.74,0,0,1-8.71,2.37,17,17,0,0,1-6.6-1.29,16.72,16.72,0,0,1-9.08-8.92A16.22,16.22,0,0,1,237.79,68.31Z"/><path class="cls-9" d="M283.41,82.83c0,.77-.41,1.16-1.24,1.16A1,1,0,0,1,281,82.83V44.5a1,1,0,0,1,1.16-1.16c.83,0,1.24.39,1.24,1.16v7.3a12,12,0,0,1,2.66-4,17.21,17.21,0,0,1,4-3,21.1,21.1,0,0,1,9.62-2.44,16.85,16.85,0,0,1,6.48,1.2,14.16,14.16,0,0,1,5,3.4,15.24,15.24,0,0,1,3.2,5.31,20.74,20.74,0,0,1,1.12,7V82.83A1,1,0,0,1,314.28,84c-.83,0-1.25-.39-1.25-1.16V59.18q0-6.47-3.65-10.41a12.62,12.62,0,0,0-9.71-3.94,17.72,17.72,0,0,0-6.22,1.08,17,17,0,0,0-5.1,2.94,14.06,14.06,0,0,0-4.94,10Z"/><path class="cls-9" d="M360.9,84.07a1.92,1.92,0,0,1-.66-.12,1.49,1.49,0,0,1-.67-.71L349.45,60.93q-3.81,8.21-5.89,12.73c-1.38,3-2.41,5.24-3.07,6.68s-1.11,2.43-1.33,3a1.18,1.18,0,0,1-1,.75,1.88,1.88,0,0,1-.71-.12,1.67,1.67,0,0,1-.62-.71l-17.5-38.16a1.31,1.31,0,0,1-.09-.58,1.14,1.14,0,0,1,.34-.79,1.25,1.25,0,0,1,1-.37,1.09,1.09,0,0,1,1,.74L338,80l16.43-35.93a1,1,0,0,1,1-.74,1.26,1.26,0,0,1,1,.37,1.18,1.18,0,0,1,.33.79,1.52,1.52,0,0,1-.08.58l-5.89,12.86,10,22.07,16.43-35.93a1.19,1.19,0,0,1,1-.74,1.39,1.39,0,0,1,1,.37,1.11,1.11,0,0,1,.38.79,1.34,1.34,0,0,1-.17.58q-4.32,9.54-7.34,16.09T367.12,72q-1.9,4.23-3,6.51c-.72,1.52-1.24,2.64-1.57,3.36s-.56,1.22-.67,1.49A1.06,1.06,0,0,1,360.9,84.07Z"/><path class="cls-9" d="M418.47,44.58V82.83A1,1,0,0,1,417.31,84c-.88,0-1.33-.39-1.33-1.16V72.21a15.52,15.52,0,0,1-2.61,5.14,19.82,19.82,0,0,1-4.15,4A18.68,18.68,0,0,1,404,84a18.85,18.85,0,0,1-13.52-.75,19.5,19.5,0,0,1-6.35-4.56,22.14,22.14,0,0,1-4.27-6.76,21.62,21.62,0,0,1-1.58-8.26,22.29,22.29,0,0,1,5.85-15.1,20.22,20.22,0,0,1,6.35-4.6,18.26,18.26,0,0,1,7.79-1.7,19,19,0,0,1,5.69.87,19.26,19.26,0,0,1,5.14,2.49,18.5,18.5,0,0,1,4.15,3.9,16.4,16.4,0,0,1,2.69,5.1v-10a1.17,1.17,0,0,1,1.33-1.32C418.09,43.26,418.47,43.7,418.47,44.58ZM415.9,63.66a19.46,19.46,0,0,0-1.41-7.38,20.08,20.08,0,0,0-3.77-6.06,17.61,17.61,0,0,0-5.56-4.06,16.65,16.65,0,0,0-13.77,0,17.5,17.5,0,0,0-5.56,4.06,19.23,19.23,0,0,0-3.73,6.06,19.83,19.83,0,0,0-1.37,7.38,19.28,19.28,0,0,0,1.37,7.26A19.69,19.69,0,0,0,385.83,77a17.17,17.17,0,0,0,5.56,4.1,16.55,16.55,0,0,0,13.77,0,17.28,17.28,0,0,0,5.56-4.1,20.59,20.59,0,0,0,3.77-6.06A18.93,18.93,0,0,0,415.9,63.66Z"/><path class="cls-9" d="M424.36,78.18a.91.91,0,0,1-.25-.66,1,1,0,0,1,.42-.83,1.42,1.42,0,0,1,.91-.33,1.09,1.09,0,0,1,1,.58A15.67,15.67,0,0,0,432,81a16.45,16.45,0,0,0,6.76,1.46,19.71,19.71,0,0,0,4.64-.54,13.42,13.42,0,0,0,4.07-1.7,8.85,8.85,0,0,0,2.9-3,8.74,8.74,0,0,0,1.08-4.44,5.76,5.76,0,0,0-1.2-3.73,9.83,9.83,0,0,0-3.07-2.49A19.77,19.77,0,0,0,443.11,65c-1.49-.42-3-.79-4.4-1.12a28.83,28.83,0,0,1-9.87-4,7.66,7.66,0,0,1-3.4-6.52,9.65,9.65,0,0,1,3.65-7.92q3.65-2.94,10.12-2.94a16.67,16.67,0,0,1,12.28,5,1.53,1.53,0,0,1,.5,1.08,1,1,0,0,1-.38.75,1.15,1.15,0,0,1-.78.33,1.13,1.13,0,0,1-.92-.41A16.85,16.85,0,0,0,445.56,46a14.24,14.24,0,0,0-6.43-1.24q-5.73,0-8.42,2.49a7.84,7.84,0,0,0-2.7,6,5.4,5.4,0,0,0,1,3.19,8.42,8.42,0,0,0,2.57,2.37,18.64,18.64,0,0,0,3.65,1.7,39.76,39.76,0,0,0,4.19,1.2q2.4.59,5,1.29A20.4,20.4,0,0,1,449,64.87a11,11,0,0,1,3.49,3.07,7.7,7.7,0,0,1,1.37,4.68,11.4,11.4,0,0,1-1.17,5.27,10.91,10.91,0,0,1-3.19,3.82A14.62,14.62,0,0,1,444.77,84a21.34,21.34,0,0,1-6,.79,21,21,0,0,1-8-1.54A15,15,0,0,1,424.36,78.18Z"/><path class="cls-9" d="M457.46,31.23a2.47,2.47,0,0,1,.71-1.75,2.36,2.36,0,0,1,1.78-.74,2.55,2.55,0,0,1,2.49,2.49,2.33,2.33,0,0,1-.75,1.78,2.45,2.45,0,0,1-1.74.71,2.43,2.43,0,0,1-2.49-2.49Zm1.33,13.27c0-.77.41-1.16,1.24-1.16a1,1,0,0,1,1.17,1.16V82.83A1,1,0,0,1,460,84c-.83,0-1.24-.39-1.24-1.16Z"/></g></g></svg>